<svg xmlns="http://www.w3.org/2000/svg" xmlns:xlink="http://www.w3.org/1999/xlink" width="40" zoomAndPan="magnify" viewBox="0 0 30 30.000001" height="40" preserveAspectRatio="xMidYMid meet" version="1.0"><defs><clipPath id="id1"><path d="M 0.484375 0 L 29.515625 0 L 29.515625 29.03125 L 0.484375 29.03125 Z M 0.484375 0 " clip-rule="nonzero"/></clipPath></defs><g clip-path="url(#id1)"><path fill="#bf935b" d="M 20.761719 26.539062 L 20.761719 20.949219 C 21.3125 20.664062 21.691406 20.089844 21.691406 19.429688 C 21.691406 18.566406 21.054688 17.855469 20.222656 17.738281 L 20.222656 15.941406 L 20.558594 15.941406 C 20.953125 15.941406 21.273438 15.621094 21.273438 15.226562 C 21.273438 14.832031 20.953125 14.515625 20.558594 14.515625 L 10.179688 14.515625 L 10.179688 8.605469 C 10.179688 8.269531 9.90625 7.996094 9.570312 7.996094 C 9.230469 7.996094 8.957031 8.269531 8.957031 8.605469 L 8.957031 26.402344 C 4.628906 24.199219 1.667969 19.703125 1.667969 14.515625 C 1.667969 7.152344 7.636719 1.183594 15 1.183594 C 21.042969 1.183594 26.148438 5.207031 27.78125 10.722656 L 17.707031 10.722656 L 17.707031 13.320312 L 22.570312 13.320312 L 22.570312 25.488281 C 21.996094 25.882812 21.394531 26.234375 20.761719 26.539062 Z M 19.816406 17.722656 L 10.179688 17.722656 L 10.179688 15.941406 L 19.816406 15.941406 Z M 19.816406 26.949219 C 18.320312 27.527344 16.699219 27.847656 15 27.847656 C 13.300781 27.847656 11.675781 27.527344 10.179688 26.949219 L 10.179688 21.136719 L 19.816406 21.136719 Z M 15 0 C 6.980469 0 0.484375 6.496094 0.484375 14.515625 C 0.484375 22.53125 6.980469 29.03125 15 29.03125 C 17.773438 29.03125 20.363281 28.25 22.570312 26.902344 C 22.964844 26.65625 23.351562 26.394531 23.722656 26.117188 C 27.238281 23.46875 29.515625 19.257812 29.515625 14.515625 C 29.515625 6.496094 23.015625 0 15 0 " fill-opacity="1" fill-rule="nonzero"/></g></svg>